<svg id="Layer_5" enable-background="new 0 0 64 64" height="512" viewBox="0 0 64 64" width="512" xmlns="http://www.w3.org/2000/svg" xmlns:xlink="http://www.w3.org/1999/xlink"><linearGradient id="SVGID_1_" gradientUnits="userSpaceOnUse" x1="32" x2="32" y1="63" y2="1"><stop offset="0" stop-color="#9f2fff"/><stop offset="1" stop-color="#0bb1d3"/></linearGradient><path d="m53 49h.414l.293-.293c.528-.528.997-1.1 1.404-1.707h1.889c2.206 0 4-1.794 4-4s-1.794-4-4-4v-2h-10v2c-2.206 0-4 1.794-4 4s1.794 4 4 4h1.889c.407.607.876 1.179 1.404 1.707l.293.293h.414v6h-8v-12-2h-3.021c-.016-.335-.042-.669-.084-1h.105c2.206 0 4-1.794 4-4v-3.938c0-4.917-3.547-9.111-8.337-9.972l-.19-.379c1.477-.589 2.527-2.027 2.527-3.711h1c1.654 0 3-1.346 3-3v-4-1c0-4.962-4.038-9-9-9h-2c-4.962 0-9 4.038-9 9v1 4c0 1.654 1.346 3 3 3h1c0 1.684 1.05 3.122 2.526 3.711l-.202.405-3.901.78c-.347.069-.701.104-1.054.104-2.96 0-5.369-2.409-5.369-5.369v-.024c1.241-.735 2-2.057 2-3.516 0-2.255-1.835-4.09-4.09-4.09-2.707-.001-4.91 2.202-4.91 4.909v2.09c0 7.168 5.832 13 13 13h1.153l.797 4.783c-1.17 1.878-1.826 4.009-1.929 6.217h-3.021v6h-8v-5h.414l.293-.293c.528-.528.997-1.1 1.404-1.707h1.889c2.206 0 4-1.794 4-4s-1.794-4-4-4v-2h-10v2c-2.206 0-4 1.794-4 4s1.794 4 4 4h1.889c.407.607.876 1.179 1.404 1.707l.293.293h.414v5h-10v16h62v-8h-10zm6-6c0 1.103-.897 2-2 2h-.828c.512-1.256.787-2.607.816-4h.012c1.103 0 2 .897 2 2zm-12 2c-1.103 0-2-.897-2-2s.897-2 2-2h.012c.029 1.393.305 2.744.816 4zm2-4.243v-1.757h6v1.757c0 2.333-.858 4.534-2.426 6.243h-1.147c-1.569-1.708-2.427-3.91-2.427-6.243zm-30-4.757c0 1.103-.897 2-2 2h-.828c.512-1.256.787-2.607.816-4h.012c1.103 0 2 .897 2 2zm-12 2c-1.103 0-2-.897-2-2s.897-2 2-2h.012c.029 1.393.305 2.744.816 4zm2-4.243v-1.757h6v1.757c0 2.333-.858 4.534-2.426 6.243h-1.147c-1.569-1.708-2.427-3.91-2.427-6.243zm17.888 23.42-.386-6.177h4.252l-1.39 6.255c-.428-.156-.883-.255-1.364-.255-.388 0-.757.073-1.112.177zm-.867-13.867c-.014-.227-.021-.455-.021-.682v-1.023c0-1.986.541-3.911 1.558-5.605h8.884c1.017 1.695 1.558 3.62 1.558 5.605v1.023c0 .227-.007.455-.021.68l-.106 1.692h-4.873v-4.587l1.707-1.706-1.414-1.415-2.293 2.292v5.416h-4.873zm6.979 3.69h4.748l-.125 2h-4.623zm-2 0v2h-4.623l-.125-2zm.127 11.536.879-3.954.868 3.953c-.539.682-.874 1.531-.874 2.465 0-.934-.335-1.782-.873-2.464zm3.51-1.281-1.39-6.255h4.252l-.386 6.177c-.356-.104-.724-.177-1.113-.177-.481 0-.936.099-1.363.255zm5.363-19.255h-.514c-.328-1.127-.808-2.208-1.437-3.217l.131-.783h3.82v2c0 1.103-.897 2-2 2zm-6.618-16 .481.963c-.409.637-1.093 1.037-1.863 1.037s-1.454-.4-1.863-1.037l.481-.963zm-5.382-11h8v2c0 .551-.449 1-1 1h-1.171c-.267 0-.519-.104-.708-.293l-1.121-1.121-1.121 1.121c-.189.189-.441.293-.708.293h-1.171c-.551 0-1-.449-1-1zm11 5h-1v-2h1c.551 0 1 .449 1 1s-.449 1-1 1zm1-3.816c-.314-.112-.648-.184-1-.184h-1v-1h2zm-9-9.184h2c3.521 0 6.442 2.612 6.929 6h-15.858c.487-3.388 3.408-6 6.929-6zm-5 8v1h-1c-.352 0-.686.072-1 .184v-1.184zm-1 5c-.551 0-1-.449-1-1s.449-1 1-1h1v2zm3-.184c.314.112.648.184 1 .184h1.171c.67 0 1.307-.218 1.829-.621.522.403 1.159.621 1.829.621h1.171c.352 0 .686-.072 1-.184v2.184c0 1.103-.897 2-2 2h-4c-1.103 0-2-.897-2-2zm-15 1.184v-2.09c0-1.604 1.305-2.91 2.91-2.91 1.153 0 2.09.938 2.09 2.09 0 .797-.443 1.513-1.155 1.869l-.845.423v1.249c0 2.666 1.427 4.998 3.553 6.292l-1.039 2.597c-3.29-1.903-5.514-5.453-5.514-9.52zm7.334 10.358 1.055-2.637c.631.177 1.293.279 1.98.279.483 0 .969-.048 1.446-.143l3.67-.734c.78 1.168 2.082 1.877 3.515 1.877 1.44 0 2.747-.717 3.526-1.896 3.713.773 6.442 4.052 6.471 7.896h-3.483l.526-3.156-1.146-2.291-1.789.895.854 1.709-.806 4.843h-8.306l-.807-4.844.854-1.709-1.789-.895-.723 1.448h-1.382c-1.287 0-2.517-.234-3.666-.642zm.666 33.642h-18v-12h18v1zm2-11v-3-4h1.011c.004.144.005.288.013.434l.938 14.994c-.591.697-.962 1.588-.962 2.572h-1zm5 9c1.103 0 2 .897 2 2h-4c0-1.103.897-2 2-2zm8 0c1.103 0 2 .897 2 2h-4c0-1.103.897-2 2-2zm5 2h-1c0-.984-.371-1.874-.962-2.572l.937-14.996c.009-.144.009-.288.013-.432h1.012v12 1zm20 0h-18v-4h18zm-30-32h-1v-2h1c.802 0 1.555.312 2.122.879.566.567.878 1.32.878 2.122v2.999h-2v-3c0-.268-.104-.519-.292-.708-.19-.188-.441-.292-.708-.292z" fill="url(#SVGID_1_)"/></svg>