<svg height="511pt" viewBox="0 0 511.99907 511" width="511pt" xmlns="http://www.w3.org/2000/svg" xmlns:xlink="http://www.w3.org/1999/xlink"><linearGradient id="a"><stop offset="0" stop-color="#662d91"/><stop offset=".437" stop-color="#3873b3"/><stop offset="1" stop-color="#00c9dd"/></linearGradient><linearGradient id="b" gradientTransform="matrix(.995673 0 0 -.995673 .000012 520.374715)" gradientUnits="userSpaceOnUse" x1="59.2392" x2="465.2574" xlink:href="#a" y1="421.3858" y2="15.3676"/><linearGradient id="c" gradientTransform="matrix(.995673 0 0 -.995673 .000012 520.374715)" gradientUnits="userSpaceOnUse" x1="88.1967" x2="494.2234" xlink:href="#a" y1="450.3434" y2="44.3251"/><path d="m10.066406 444.09375 85.613282-15.566406 15.425781 77.140625c.679687 3.382812 3.324219 6.027343 6.707031 6.699219.546875.097656 1.101562.140624 1.65625.128906 2.855469 0 5.519531-1.425782 7.101562-3.796875l59.867188-89.804688 12.707031 21.1875c1.195313 1.996094 3.15625 3.417969 5.425781 3.933594.636719.148437 1.285157.21875 1.9375.214844 1.667969 0 3.300782-.492188 4.695313-1.410157l44.796875-29.515624 44.835938 29.515624c3.933593 2.59375 9.226562 1.507813 11.820312-2.429687.066406-.101563.128906-.203125.191406-.308594l12.714844-21.195312 59.871094 89.808593c1.582031 2.375 4.246094 3.800782 7.097656 3.800782.554688 0 1.109375-.054688 1.65625-.164063 3.386719-.671875 6.03125-3.3125 6.707031-6.699219l15.53125-77.8125 86.269531 7.875c4.695313.425782 8.84375-3.035156 9.269532-7.730468.175781-1.941406-.320313-3.882813-1.402344-5.503906l-62.359375-93.578126 10.929687-3.410156c4.5-1.40625 7.007813-6.191406 5.605469-10.691406-.058593-.183594-.125-.367188-.195312-.546875l-19.171875-49.316406 39.046875-36.308594c3.449219-3.210937 3.644531-8.609375.433593-12.058594-.140624-.148437-.285156-.292969-.433593-.433593l-39.046875-36.296876 19.183594-49.316406c1.707031-4.390625-.46875-9.335937-4.863282-11.046875-.179687-.070312-.363281-.132812-.546875-.191406l-51.335937-16.007813-4.488282-52.648437c-.199218-2.34375-1.347656-4.503906-3.183593-5.972656-1.824219-1.46875-4.175781-2.113281-6.496094-1.785157l-53.425781 7.398438-27.355469-45.601562c-2.421875-4.042969-7.664063-5.355469-11.707031-2.933594-.105469.0625-.207032.128906-.308594.195312l-44.84375 29.515625-44.832031-29.515625c-3.933594-2.59375-9.226563-1.507812-11.820313 2.429688-.066406.101562-.132812.203125-.195312.308594l-27.355469 45.617187-53.417969-7.398437c-4.667968-.648438-8.976562 2.613281-9.625 7.28125-.023437.148437-.039062.300781-.050781.453124l-4.5 52.648438-51.292969 16.007812c-4.496094 1.40625-7.003906 6.191407-5.601562 10.6875.058594.1875.121094.371094.191406.550782l19.175781 49.3125-39.09375 36.3125c-3.449219 3.210937-3.640625 8.609375-.429687 12.058594.136718.148437.28125.292968.429687.433593l39.050781 36.296875-19.183593 49.3125c-1.707031 4.394532.46875 9.339844 4.859375 11.046875.183594.070313.367187.136719.550781.191407l11.324219 3.527343-62.917969 102.234375c-2.46875 4.015625-1.21875 9.269532 2.796875 11.742188 1.792969 1.101562 3.929688 1.503906 6.003906 1.128906zm476.402344-27.042969-76.101562-6.957031c-4.324219-.332031-8.226563 2.585938-9.128907 6.828125l-13.03125 65.132813-52.90625-79.359376 4.933594-8.226562 53.417969 7.398438c4.667968.648437 8.976562-2.609376 9.625-7.277344.019531-.152344.039062-.300782.050781-.453125l4.496094-52.652344 23.425781-7.300781zm-440.539062-194.6875 36.566406-33.996093c2.558594-2.378907 3.410156-6.082032 2.140625-9.34375l-17.917969-46.199219 48.082031-14.992188c3.316407-1.027343 5.679688-3.964843 5.972657-7.421875l4.21875-49.398437 50.097656 6.9375c3.40625.484375 6.769531-1.117188 8.53125-4.070313l25.6875-42.820312 42 27.714844c2.847656 1.875 6.539062 1.875 9.386718 0l42.101563-27.714844 25.6875 42.828125c1.769531 2.917969 5.101563 4.515625 8.488281 4.058593l50.097656-6.925781 4.214844 49.398438c.296875 3.457031 2.660156 6.394531 5.972656 7.421875l48.078126 15.003906-17.921876 46.179688c-1.265624 3.257812-.417968 6.964843 2.144532 9.34375l36.511718 33.996093-36.566406 33.996094c-2.558594 2.382813-3.410156 6.085937-2.140625 9.34375l17.921875 46.199219-48.042968 14.992187c-3.316407 1.03125-5.679688 3.964844-5.972657 7.425781l-4.214843 49.398438-50.09375-6.90625c-3.386719-.449219-6.71875 1.148438-8.488282 4.070312l-25.683594 42.820313-42.097656-27.75c-2.847656-1.875-6.535156-1.875-9.382812 0l-42.105469 27.714844-25.683594-42.824219c-1.542969-2.574219-4.316406-4.148438-7.3125-4.148438-.394531 0-.789062.027344-1.179687.085938l-50.097656 6.929688-4.214844-49.402344c-.296875-3.457032-2.660156-6.394532-5.972656-7.421875l-48.078126-15.003907 17.972657-46.179687c1.265625-3.257813.417969-6.960937-2.144531-9.34375zm35.0625 111.871094 23.203124 7.238281 4.488282 52.648438c.199218 2.34375 1.351562 4.503906 3.183594 5.972656 1.828124 1.460938 4.175781 2.105469 6.496093 1.785156l53.425781-7.398437 4.941407 8.242187-52.90625 79.359375-13.058594-65.160156c-.910156-4.5625-5.308594-7.554687-9.890625-6.722656l-75.046875 13.652343zm0 0" fill="url(#b)"/><path d="m136.535156 316.230469h59.734375c4.710938 0 8.53125-3.820313 8.53125-8.535157h128c14.109375-.066406 25.53125-11.488281 25.601563-25.597656-.03125-4.402344-1.207032-8.71875-3.414063-12.527344 1.574219-.984374 3.027344-2.144531 4.335938-3.464843 8.273437-8.046875 10.003906-20.695313 4.195312-30.667969 1.574219-.984375 3.03125-2.144531 4.335938-3.464844 8.273437-8.046875 10.003906-20.695312 4.199219-30.667968 1.574218-.984376 3.03125-2.148438 4.335937-3.464844 4.898437-4.761719 7.644531-11.3125 7.613281-18.144532 0-14.136718-11.460937-25.597656-25.601562-25.597656h-59.730469v-34.132812c.023437-23.539063-19.042969-42.644532-42.582031-42.667969-.03125 0-.058594 0-.085938 0-4.714844 0-8.535156 3.820313-8.535156 8.535156v40.652344l-15.359375 30.652344-27.457031 21.972656c-.28125-4.4375-3.9375-7.90625-8.382813-7.945313h-59.734375c-4.710937 0-8.53125 3.820313-8.53125 8.53125v128c0 4.714844 3.820313 8.535157 8.53125 8.535157zm107.734375-146.933594c.960938-.773437 1.75-1.746094 2.304688-2.851563l17.066406-34.132812c.589844-1.183594.894531-2.488281.894531-3.8125v-32.675781c10.246094 3.597656 17.09375 13.285156 17.066406 24.140625v42.667968c0 4.710938 3.820313 8.53125 8.535157 8.53125h68.265625c4.710937 0 8.53125 3.820313 8.53125 8.535157.007812 2.296875-.9375 4.496093-2.613282 6.074219-1.554687 1.59375-3.695312 2.480468-5.921874 2.457031h-34.132813v17.066406h25.601563c4.710937 0 8.53125 3.820313 8.53125 8.535156.007812 2.296875-.9375 4.496094-2.609376 6.074219-1.554687 1.59375-3.695312 2.480469-5.921874 2.457031h-34.132813v17.066407h25.597656c4.714844 0 8.535157 3.820312 8.535157 8.535156.007812 2.296875-.9375 4.496094-2.609376 6.074218-1.558593 1.59375-3.699218 2.480469-5.925781 2.457032h-34.132812v17.066406h25.601562c4.710938 0 8.53125 3.820312 8.53125 8.535156.007813 2.296875-.9375 4.496094-2.609375 6.074219-1.558594 1.59375-3.695312 2.480469-5.921875 2.457031h-128v-89.769531zm-99.199219 18.933594h42.664063v110.933593h-42.664063zm0 0" fill="url(#c)"/></svg>