<svg id="Layer_5" enable-background="new 0 0 64 64" height="512" viewBox="0 0 64 64" width="512" xmlns="http://www.w3.org/2000/svg" xmlns:xlink="http://www.w3.org/1999/xlink"><linearGradient id="SVGID_1_" gradientUnits="userSpaceOnUse" x1="32" x2="32" y1="63" y2="1"><stop offset="0" stop-color="#9f2fff"/><stop offset="1" stop-color="#0bb1d3"/></linearGradient><path d="m23 59h18c3.859 0 7-3.141 7-7v-8-1-4h-32v4 1 8c0 3.859 3.141 7 7 7zm-5-18h28v2 1c0 1.654-1.346 3-3 3h-22c-1.654 0-3-1.346-3-3v-1zm0 6.974c.838.635 1.87 1.026 3 1.026h22c1.13 0 2.162-.391 3-1.026v4.026c0 2.757-2.243 5-5 5h-18c-2.757 0-5-2.243-5-5zm14-30.974c-2.206 0-4 1.794-4 4s1.794 4 4 4 4-1.794 4-4-1.794-4-4-4zm0 6c-1.103 0-2-.897-2-2s.897-2 2-2 2 .897 2 2-.897 2-2 2zm-23 18c-2.757 0-5 2.243-5 5v8c0 4.963 4.037 9 9 9h10.706 16.588 10.706c4.963 0 9-4.037 9-9v-8c0-2.757-2.243-5-5-5h-2.42l-3.444-16.722 7.328-7.328c.99-.99 1.535-2.307 1.535-3.707.001-2.891-2.351-5.243-5.241-5.243-1.4 0-2.717.545-3.707 1.535l-5.796 5.796c-.709-.476-1.465-.881-2.255-1.219v-4.112c0-4.963-4.037-9-9-9s-9 4.037-9 9v4.112c-.79.338-1.546.743-2.255 1.219l-5.796-5.796c-.99-.99-2.306-1.535-3.707-1.535-2.89 0-5.242 2.352-5.242 5.242 0 1.4.545 2.717 1.535 3.707l7.328 7.328-3.443 16.723zm4 20c-3.859 0-7-3.141-7-7v-8c0-1.654 1.346-3 3-3h2.008l-.727 3.531c-.186.91-.281 1.839-.281 2.763 0 4.96 2.657 9.3 6.614 11.706zm42-18c1.654 0 3 1.346 3 3v8c0 3.859-3.141 7-7 7h-3.614c3.957-2.406 6.614-6.746 6.614-11.706 0-.924-.095-1.853-.281-2.764l-.727-3.53zm-27-14h8v4.323l-4 1.6-4-1.6zm-5-2c-1.654 0-3-1.346-3-3v-5.461c2.149-2.193 5.129-3.539 8.356-3.539h7.287c3.228 0 6.208 1.346 8.356 3.539v5.461c0 1.654-1.346 3-3 3zm12-14h-6v-3c0-1.654 1.346-3 3-3s3 1.346 3 3zm15.465-2.051c.612-.612 1.427-.949 2.293-.949 1.788 0 3.242 1.454 3.242 3.242 0 .866-.337 1.681-.949 2.293l-6.527 6.527c-.274-.757-.611-1.48-1.006-2.166l2.189-2.189-1.414-1.414-1.921 1.921c-.468-.588-.98-1.135-1.534-1.638zm-25.465-.949c0-3.859 3.141-7 7-7s7 3.141 7 7v3.428c-.652-.166-1.319-.286-2-.354v-3.074c0-2.757-2.243-5-5-5s-5 2.243-5 5v3.074c-.681.068-1.348.188-2 .354zm-17 3.242c0-1.788 1.454-3.242 3.242-3.242.866 0 1.681.337 2.293.949l5.627 5.627c-.554.503-1.067 1.05-1.534 1.638l-1.921-1.921-1.414 1.414 2.189 2.189c-.395.685-.732 1.409-1.006 2.166l-6.527-6.527c-.612-.612-.949-1.427-.949-2.293zm8.892 11.104c.225-1.093.607-2.12 1.108-3.071v2.725c0 2.757 2.243 5 5 5h3v5.677l6 2.4 6-2.4v-5.677h3c2.757 0 5-2.243 5-5v-2.725c.502.951.884 1.979 1.108 3.07l4.651 22.588c.159.777.24 1.571.24 2.36.001 6.456-5.25 11.707-11.705 11.707h-16.588c-6.455 0-11.706-5.251-11.706-11.706 0-.789.081-1.583.24-2.359z" fill="url(#SVGID_1_)"/></svg>