<?xml version="1.0"?>
<svg xmlns="http://www.w3.org/2000/svg" xmlns:xlink="http://www.w3.org/1999/xlink" width="512" height="512" viewBox="0 0 128 128"><defs><linearGradient id="a" x1="107.988" y1="89.751" x2="20.012" y2="1.776" gradientUnits="userSpaceOnUse"><stop offset="0" stop-color="#7c84e8"/><stop offset="1" stop-color="#ff637b"/></linearGradient></defs><path d="M118.937,39.685v4.273a1.75,1.75,0,0,1-3.5,0V39.685a1.75,1.75,0,0,1,3.5,0ZM128,27.423V56.986a6.758,6.758,0,0,1-6.75,6.75h-2.313v5.156a6.757,6.757,0,0,1-6.75,6.75h-7.25a6.757,6.757,0,0,1-6.749-6.75v-17.5H88.719V63.748A11.277,11.277,0,0,1,86.7,70.2L79.531,80.534v36.949a1.75,1.75,0,0,1-1.75,1.75H50.219a1.75,1.75,0,0,1-1.75-1.75V80.437l-1.21-2.191a1.75,1.75,0,1,1,3.065-1.691l1.427,2.585a1.75,1.75,0,0,1,.218.846v35.747H76.031V79.986a1.752,1.752,0,0,1,.312-1l7.48-10.78a7.789,7.789,0,0,0,1.4-4.46v-19.4a7.828,7.828,0,0,0-7.491-7.808l-.02,0-.314-.019H64a2.845,2.845,0,0,0-2.844,2.825v.038c0,.088.005.177.014.266A2.976,2.976,0,0,0,64.2,42.208H77.781a1.75,1.75,0,0,1,1.75,1.75V51.05a6.335,6.335,0,0,1-10.937,4.362,6.315,6.315,0,0,1-9.188,0,6.314,6.314,0,0,1-9.187,0,6.3,6.3,0,0,1-7.438,1.3v2.223a15.392,15.392,0,0,0,1.912,7.42,1.75,1.75,0,1,1-3.064,1.691,18.9,18.9,0,0,1-2.348-9.111v-7.2A1.709,1.709,0,0,1,39.3,51.5c0-.038,0-.077-.006-.115H29.813v17.5a6.758,6.758,0,0,1-6.75,6.75h-7.25a6.757,6.757,0,0,1-6.75-6.75V63.736H6.75A6.758,6.758,0,0,1,0,56.986V27.423a6.758,6.758,0,0,1,6.75-6.75H9.063V15.517a6.757,6.757,0,0,1,6.75-6.75h7.25a6.758,6.758,0,0,1,6.75,6.75v17.5h9.468v-.753a6.335,6.335,0,0,1,10.938-4.362,6.314,6.314,0,0,1,9.22.035,6.192,6.192,0,0,1,3.943-1.987,6.363,6.363,0,0,1,4.885,1.619q.169.155.327.32.157-.165.327-.32a6.389,6.389,0,0,1,4.884-1.619,6.5,6.5,0,0,1,5.726,6.511v.556H98.188v-17.5a6.757,6.757,0,0,1,6.749-6.75h7.25a6.757,6.757,0,0,1,6.75,6.75v5.156h2.313A6.758,6.758,0,0,1,128,27.423ZM9.063,60.236V24.173H6.75a3.254,3.254,0,0,0-3.25,3.25V56.986a3.254,3.254,0,0,0,3.25,3.25Zm17.25-10.6V15.517a3.254,3.254,0,0,0-3.25-3.25h-7.25a3.253,3.253,0,0,0-3.25,3.25V68.892a3.253,3.253,0,0,0,3.25,3.25h7.25a3.254,3.254,0,0,0,3.25-3.25Zm3.5-1.75h9.468V36.52H29.813ZM48.469,51.05V32.267a2.844,2.844,0,1,0-5.688,0V51.05a2.844,2.844,0,0,0,5.688,0Zm9.187,0V32.267a2.844,2.844,0,1,0-5.687,0V51.05a2.844,2.844,0,1,0,5.687,0Zm18.375-5.342H70.344V51.05a2.844,2.844,0,1,0,5.687,0Zm-14.875-.737V51.05a2.844,2.844,0,1,0,5.688,0V45.708H64.2A6.649,6.649,0,0,1,61.156,44.971ZM67.014,33.02a1.74,1.74,0,0,1-.17-.753A2.845,2.845,0,0,0,64,29.423c-.094,0-.19.005-.285.014a2.976,2.976,0,0,0-2.559,3.027V33.7A6.357,6.357,0,0,1,64,33.02Zm3.16,0h5.857v-.556a2.976,2.976,0,0,0-2.559-3.027,2.844,2.844,0,0,0-3.128,2.83A1.74,1.74,0,0,1,70.174,33.02ZM98.188,47.889V36.52H85.561a11.278,11.278,0,0,1,3.158,7.825v3.544ZM124.5,27.423a3.254,3.254,0,0,0-3.25-3.25h-2.313V28a1.75,1.75,0,1,1-3.5,0V15.517a3.254,3.254,0,0,0-3.25-3.25h-7.25a3.254,3.254,0,0,0-3.25,3.25V68.892a3.254,3.254,0,0,0,3.25,3.25h7.25a3.254,3.254,0,0,0,3.25-3.25V55.644a1.75,1.75,0,1,1,3.5,0v4.592h2.313a3.254,3.254,0,0,0,3.25-3.25Z" fill="url(#a)"/></svg>
