<svg id="Capa_1" enable-background="new 0 0 512 512" height="512" viewBox="0 0 512 512" width="512" xmlns="http://www.w3.org/2000/svg" xmlns:xlink="http://www.w3.org/1999/xlink"><linearGradient id="SVGID_1_" gradientUnits="userSpaceOnUse" x1="256" x2="256" y1="512" y2="0"><stop offset="0" stop-color="#5558ff"/><stop offset="1" stop-color="#00c0ff"/></linearGradient><g><g><path d="m497 241h-16.504c-7.341-112.27-97.043-202.143-209.496-209.496v-16.504c0-8.284-6.716-15-15-15s-15 6.716-15 15v16.504c-112.27 7.341-202.143 97.043-209.496 209.496h-16.504c-8.284 0-15 6.716-15 15s6.716 15 15 15h16.504c7.341 112.27 97.044 202.143 209.496 209.496v16.504c0 8.284 6.716 15 15 15s15-6.716 15-15v-16.504c112.27-7.341 202.143-97.043 209.496-209.496h16.504c8.284 0 15-6.716 15-15s-6.716-15-15-15zm-91 30h44.429c-7.306 95.591-83.838 172.123-179.429 179.429v-44.429c0-8.284-6.716-15-15-15s-15 6.716-15 15v44.429c-95.591-7.306-172.123-83.838-179.429-179.429h44.429c8.284 0 15-6.716 15-15s-6.716-15-15-15h-44.429c7.306-95.591 83.838-172.123 179.429-179.429v44.429c0 8.284 6.716 15 15 15s15-6.716 15-15v-44.429c95.591 7.306 172.123 83.838 179.429 179.429h-44.429c-8.284 0-15 6.716-15 15s6.716 15 15 15zm-150-90c-41.355 0-75 33.645-75 75s33.645 75 75 75 75-33.645 75-75-33.645-75-75-75zm0 120c-24.813 0-45-20.187-45-45s20.187-45 45-45 45 20.187 45 45-20.187 45-45 45z" fill="url(#SVGID_1_)"/></g></g></svg>