<svg height="512pt" viewBox="-20 0 512 512" width="512pt" xmlns="http://www.w3.org/2000/svg" xmlns:xlink="http://www.w3.org/1999/xlink"><linearGradient id="a" gradientUnits="userSpaceOnUse" x1=".000242" x2="471.823442" y1="256" y2="256"><stop offset="0" stop-color="#80d8ff"/><stop offset="1" stop-color="#ea80fc"/></linearGradient><path d="m461.820312 364.203125-71.222656-41.117187c18.085938-41.953126 18.742188-90.695313 0-134.167969l66.90625-38.632813c9.566406-5.519531 12.847656-17.753906 7.320313-27.316406-5.519531-9.566406-17.753907-12.847656-27.320313-7.320312l-66.953125 38.65625c-27.257812-36.398438-68.75-61.539063-116.144531-67.121094v-67.183594c0-11.046875-8.957031-20-20-20-11.046875 0-20 8.953125-20 20v67.183594c-47.394531 5.578125-88.890625 30.71875-116.148438 67.117187l-68.253906-39.40625c-9.566406-5.519531-21.796875-2.246093-27.320312 7.320313-5.523438 9.566406-2.246094 21.796875 7.320312 27.320312l68.207032 39.378906c-18.085938 41.953126-18.742188 90.695313 0 134.167969l-65.40625 37.761719c-9.5625 5.523438-12.8437505 17.753906-7.320313 27.320312 5.550781 9.613282 17.800781 12.816407 27.320313 7.320313l65.453124-37.789063c27.191407 36.3125 68.675782 61.53125 116.144532 67.121094v67.183594c0 11.046875 8.957031 20 20 20 11.046875 0 20-8.953125 20-20v-67.183594c47.464844-5.585937 88.949218-30.800781 116.148437-67.117187l71.269531 41.144531c9.53125 5.503906 21.777344 2.277344 27.320313-7.320312 5.523437-9.566407 2.246094-21.796876-7.320313-27.320313zm-227.414062-238.203125c71.679688 0 130 58.316406 130 130 0 32.9375-12.320312 63.046875-32.582031 85.976562-8.816407-18.871093-22.910157-34.800781-40.671875-45.851562 13.9375-14.253906 22.550781-33.730469 22.550781-55.191406 0-43.5625-35.4375-79-79-79s-79 35.4375-79 79c0 21.34375 8.523437 40.722656 22.324219 54.957031-17.457032 10.761719-31.9375 26.59375-41.039063 46.085937-20.265625-22.929687-32.582031-53.039062-32.582031-85.976562 0-71.683594 58.316406-130 130-130zm-64.855469 242.636719c8.152344-28.445313 34.234375-48.703125 64.855469-48.703125 30.617188 0 56.699219 20.257812 64.851562 48.703125-40.039062 23.144531-89.59375 23.183593-129.707031 0zm65.152344-88.703125c-21.503906 0-39-17.496094-39-39s17.496094-39 39-39 39 17.496094 39 39-17.496094 39-39 39zm0 0" fill="url(#a)"/></svg>